<?xml version="1.0" encoding="UTF-8"?>
<svg width="1600px" height="1200px" viewBox="0 0 1600 1200" version="1.1" xmlns="http://www.w3.org/2000/svg" xmlns:xlink="http://www.w3.org/1999/xlink">
    <!-- Generator: Sketch 55.2 (78181) - https://sketchapp.com -->
    <title>Taieri</title>
    <desc>Created with Sketch.</desc>
    <g id="Patterns" stroke="none" stroke-width="1" fill="none" fill-rule="evenodd" stroke-linecap="round" stroke-linejoin="round">
        <g id="Taieri" stroke-width="13">
            <g transform="translate(0.000000, -106.000000)" id="Shape">
                <path d="M1600,999 C1600,1031.03292 1574.25677,1057 1542.5,1057 C1510.74323,1057 1485,1031.03292 1485,999" stroke="#44AB96"></path>
                <path d="M1600,155 C1560.232,155 1528,122.540542 1528,82.5 C1528,42.4593375 1560.232,10 1600,10" stroke="#E53855"></path>
                <path d="M562,68.9061033 C562,102.094761 588.86303,129 622,129 C655.13697,129 682,102.094761 682,68.9061033 L682,1" stroke="#44AB96"></path>
                
                <path d="M1600,462 L1600,293.680945 C1600,260.719685 1573.132,234 1540,234 C1506.868,234 1480,260.719685 1480,293.680945 L1480,319.733984" stroke="#DA774A"></path>
                
                <circle stroke="#44AB96" cx="588" cy="393" r="40"></circle>
                <ellipse stroke="#E53855" cx="698" cy="1195.5" rx="58" ry="57.5"></ellipse>
                
                <!-- second -->
                <path d="M1311.21029,1224.45737 C1289.86431,1304.2718 1336.04182,1386.01294 1414.34647,1407.03829 C1492.65112,1428.05159 1573.44373,1380.38933 1594.78971,1300.5749 C1616.13569,1220.76047 1569.95818,1139.02294 1491.65353,1118" stroke="#44AB96"></path>
                
                <path d="M328.5,414 C296.743229,414 271,439.743053 271,471.5 C271,503.256947 296.743229,529 328.5,529 C360.256771,529 386,503.256947 386,471.5 L386,414" stroke="#44AB96"></path>
                <path d="M346,77.5 C346,119.749516 380.026457,154 422,154 C463.973543,154 498,119.749516 498,77.5 C498,35.2502453 463.973543,1 422,1 L346,1" stroke="#E53855"></path>
                
                <path d="M1461.98822,870 C1461.98822,903.688911 1488.85977,931 1522.00014,931 C1555.14051,931 1582,903.688911 1582,870 C1582,836.311089 1555.14051,809 1522.00014,809 L1321,809" stroke="#44AB96"></path>
                <path d="M966,139.790824 C930.653887,139.790824 902,168.043394 902,202.895412 C902,237.74743 930.653887,266 966,266 C1001.34611,266 1030,237.74743 1030,202.895412 L1030,0" stroke="#4484AB"></path>
                <path d="M914.918699,1354 C914.918699,1321.96708 940.681163,1296 972.45935,1296 C1004.23875,1296 1030,1321.96708 1030,1354 C1030,1386.03292 1004.23875,1412 972.45935,1412 L881,1412" stroke="#44AB96"></path>
                <path d="M1089.5,562.577778 C1121.25677,562.577778 1147,588.191493 1147,619.788889 C1147,651.386284 1121.25677,677 1089.5,677 C1057.74323,677 1032,651.386284 1032,619.788889 L1032,406" stroke="#DA774A"></path>
                
                <path d="M688.703935,394 C688.703935,337.115088 643.326663,291 587.351967,291 C531.377271,291 486,337.115088 486,394 C486,450.884912 531.377271,497 587.351967,497 L853,497" stroke="#FFB017"></path>
                <path d="M1498.64324,727 C1554.62873,727 1600,680.884912 1600,624 C1600,567.115088 1554.62873,521 1498.64324,521 L1233,521" stroke="#44AB96"></path>
                <path d="M1107,175.5 C1107,122.20424 1149.73931,79 1202.46154,79 L1300.53846,79 C1353.26462,79 1396,122.20424 1396,175.5 L1396,175.5 C1396,228.79576 1353.26462,272 1300.53846,272 L1202.46154,272 C1149.73931,272 1107,228.79576 1107,175.5 L1107,175.5 Z" stroke="#DA774A"></path>
                <!-- fourth -->
                
                <path d="M914,317.930473 L914,325.718935 C914,370.056849 877.958828,406 833.5,406 L833.5,406 C789.041172,406 753,370.056849 753,325.718935 L753,81.2810651 C753,36.9430311 789.041172,1 833.5,1 L833.5,1 C877.958828,1 914,36.9430311 914,81.2810651 L914,83.6775148" stroke="#FFB017"></path>
                <!-- six -->
                <path d="M751,660 L751,891.636695 C751,960.873131 807.635857,1017 877.5,1017 C947.364143,1017 1004,960.873131 1004,891.636695 L1004,836.909074" stroke="#44AB96"></path>
                <path d="M497,1052 L704.801584,1052 C783.887993,1052 848,1116.4712 848,1196 C848,1275.524 783.887993,1340 704.801584,1340 L642.287645,1340" stroke="#44AB96"></path>
                
                <path d="M1089.5,472 L1145.68138,472 C1183.41029,472 1214,443.121917 1214,407.5 C1214,371.878083 1183.41029,343 1145.68138,343 L1033.31862,343 C995.587304,343 965,371.878083 965,407.5" stroke="#44AB96"></path>
                <path d="M675,203 L540.31882,203 C455.090745,203 386,272.395543 386,358" stroke="#44AB96"></path>
                <path d="M1449.5,1206.84034 C1481.25677,1206.84034 1507,1232.40008 1507,1263.92017 C1507,1295.44025 1481.25677,1321 1449.5,1321 C1417.74323,1321 1392,1295.44025 1392,1263.92017 L1392,892" stroke="#E53855"></path>
                <path d="M1019,1244 C1019,1185.45909 1065.8466,1138 1123.63468,1138 L1308,1138" stroke="#44AB96"></path>
                <path d="M747,581 L845.373099,581 C911.441473,581 965,527.2736 965,461" stroke="#4484AB"></path>
                <path d="M1321,894 L1321,947.75513 C1321,1002.01372 1276.99829,1046 1222.71233,1046 L1146,1046" stroke="#4484AB"></path>
                <path d="M1507,626 L1422.99321,626 C1362.24247,626 1313,675.69663 1313,737" stroke="#DA774A"></path>
                
                
                <path d="M1088.5,749 C1088.5,756.692889 1088.5,853.538603 1088.5,901" stroke="#44AB96"></path>
                <path d="M934.5,1162 C934.5,1165.13815 934.5,1204.63692 934.5,1224" stroke="#44AB96"></path>
                <path d="M1233,587 L1233,729.3306 C1233,751.72569 1214.70469,769.866206 1192.13523,769.866206 C1169.56577,769.866206 1151.27047,788.021141 1151.27047,810.417433 L1151.27047,818.828058 C1151.27047,841.223148 1169.56577,859.379284 1192.13523,859.379284 C1214.70469,859.379284 1233,877.534218 1233,899.93051 L1233,909.242274 C1233,936.781062 1210.50319,959.105263 1182.75147,959.105263 L1156.7191,959.105263 L1118.57865,959.105263 M954,1092 L980.776066,1092 C1036.10685,1092 1080.96067,1047.20111 1080.96067,991.93808" stroke="#FFB017"></path>
                <path d="M1481,389.9208 L1481,410.2032 C1481,438.81 1457.73657,462 1429.05744,462 L1429.05744,462 C1400.36628,462 1377.10285,438.81 1377.10285,410.2032 L1377.10285,393.4032 C1377.10285,365.0136 1354.01994,342 1325.55744,342 L1325.55744,342 C1297.08291,342 1274,365.0136 1274,393.4032 L1274,414.0792" stroke="#E53855"></path>
                <path d="M1089,1285.96667 C1089,1245.67218 1121.68349,1213 1162,1213 L1162,1213 C1202.31289,1213 1235,1245.67218 1235,1285.96667 L1235,1339.03333 C1235,1379.32782 1202.31289,1412 1162,1412 L1162,1412 C1121.68349,1412 1089,1379.32782 1089,1339.03333 L1089,1285.96667 Z" stroke="#4484AB"></path>
            </g>
        </g>
    </g>
</svg>