<?xml version="1.0" standalone="no"?>
<!DOCTYPE svg PUBLIC "-//W3C//DTD SVG 20010904//EN"
 "http://www.w3.org/TR/2001/REC-SVG-20010904/DTD/svg10.dtd">
<svg version="1.0" xmlns="http://www.w3.org/2000/svg"
 width="1413.000000pt" height="2000.000000pt" viewBox="0 0 1413.000000 2000.000000"
 preserveAspectRatio="xMidYMid meet">

<g transform="translate(0.000000,2000.000000) scale(0.100000,-0.100000)"
fill="#FFB017" stroke="none">
<path d="M10419 17266 c-94 -26 -160 -65 -228 -133 -111 -111 -160 -246 -148
-398 16 -184 118 -331 284 -412 l74 -35 -3 -1091 c-3 -1009 -5 -1097 -21
-1152 -29 -97 -64 -145 -132 -180 l-59 -30 -379 0 -379 0 -18 53 c-57 162
-225 272 -395 259 -125 -10 -221 -63 -297 -162 -102 -134 -103 -348 -3 -485
126 -171 376 -204 550 -72 26 20 62 58 79 83 l31 47 395 4 c425 6 462 10 573
63 154 73 243 196 294 404 14 58 17 199 22 1164 l6 1099 57 23 c317 129 419
515 206 782 -40 51 -123 116 -183 142 -93 41 -232 52 -326 27z m185 -277 c21
-6 58 -29 82 -51 110 -101 97 -273 -28 -355 -37 -25 -51 -28 -124 -28 -76 0
-85 2 -126 31 -87 64 -122 186 -79 280 21 46 91 111 136 123 42 13 93 13 139
0z"/>
<path d="M3156 17104 c-266 -64 -449 -334 -408 -600 23 -149 111 -285 236
-366 85 -55 171 -79 286 -80 101 -1 140 7 233 50 40 18 62 23 72 17 22 -16
417 -295 560 -396 709 -503 963 -675 1070 -725 151 -70 186 -75 555 -86 l335
-10 20 -26 c110 -146 273 -209 435 -168 122 32 210 103 264 216 29 60 31 73
31 170 0 97 -2 110 -31 170 -39 82 -109 151 -194 193 -60 29 -73 32 -165 32
-82 0 -109 -4 -149 -23 -109 -50 -194 -140 -229 -242 l-15 -45 -203 -3 c-244
-3 -411 10 -499 39 -69 24 -207 113 -535 344 -382 270 -1075 766 -1075 769 0
2 12 35 26 72 51 134 43 285 -23 422 -36 74 -149 188 -229 230 -113 59 -246
76 -368 46z m195 -256 c108 -36 169 -118 177 -234 4 -65 1 -80 -22 -128 -46
-93 -131 -146 -236 -146 -139 0 -245 95 -257 229 -7 79 1 119 38 174 63 95
194 141 300 105z"/>
<path d="M5525 16911 c-322 -92 -480 -468 -322 -765 151 -284 525 -375 783
-190 82 58 128 113 172 206 l37 77 530 0 c571 0 581 -1 619 -52 20 -27 21 -43
24 -310 2 -155 1 -309 -3 -342 -6 -59 -7 -61 -50 -84 -63 -33 -132 -107 -167
-179 -41 -82 -50 -200 -23 -283 62 -193 247 -311 436 -280 96 16 152 43 218
106 130 124 162 296 87 461 -32 69 -115 153 -184 185 l-53 24 3 345 c2 333 1
347 -20 405 -49 134 -123 207 -256 252 l-71 25 -541 -2 -541 -1 -18 53 c-54
168 -201 310 -369 354 -70 19 -217 17 -291 -5z m287 -284 c57 -33 82 -62 109
-122 61 -135 0 -285 -140 -348 -33 -14 -59 -18 -110 -15 -75 5 -124 25 -170
70 -56 55 -76 103 -76 189 0 67 3 81 30 124 35 56 87 101 141 121 59 22 162
13 216 -19z"/>
<path d="M6175 14410 c-114 -10 -164 -23 -247 -67 -114 -60 -182 -151 -221
-294 l-22 -84 0 -1285 c0 -1187 1 -1290 17 -1353 52 -202 180 -324 381 -362
114 -22 1697 -22 1809 -1 186 36 303 132 364 300 43 118 45 218 41 1506 -4
1344 1 1260 -74 1402 -41 79 -101 136 -187 180 -121 61 -114 61 -981 64 -434
1 -830 -2 -880 -6z"/>
<path d="M3185 14270 c-269 -54 -462 -320 -426 -585 40 -283 257 -475 538
-475 226 0 414 128 488 331 l23 64 393 3 394 2 29 -55 c33 -64 115 -143 178
-173 140 -65 299 -37 419 75 223 207 133 580 -160 667 -129 38 -263 3 -363
-95 -32 -31 -67 -78 -79 -103 l-20 -46 -399 0 c-318 0 -400 3 -400 13 0 7 -16
46 -35 86 -102 211 -351 337 -580 291z m220 -291 c88 -45 135 -115 143 -216 6
-77 -15 -138 -66 -195 -100 -111 -274 -117 -377 -13 -58 58 -78 115 -73 209 3
63 8 81 33 117 84 118 222 158 340 98z"/>
<path d="M3807 13225 c-175 -48 -326 -202 -373 -378 -19 -71 -18 -211 2 -278
78 -262 341 -435 586 -384 174 36 306 138 381 296 l42 88 77 1 78 0 25 -51
c36 -71 104 -135 183 -172 59 -28 77 -32 153 -32 78 0 91 3 161 38 252 124
302 447 98 641 -66 63 -115 89 -206 106 -145 28 -318 -62 -390 -202 l-24 -48
-80 0 c-68 0 -82 3 -86 18 -54 165 -210 313 -379 358 -62 17 -185 16 -248 -1z
m218 -264 c59 -26 103 -68 129 -120 52 -103 40 -210 -34 -294 -55 -63 -109
-87 -193 -87 -109 0 -183 42 -233 132 -25 46 -29 64 -29 128 0 85 20 133 77
187 73 70 196 94 283 54z"/>
<path d="M10788 13210 c-194 -35 -352 -164 -414 -338 l-19 -52 -487 0 -488 0
-24 48 c-41 80 -91 128 -174 169 -73 36 -80 38 -177 38 -93 0 -105 -2 -165
-32 -83 -41 -152 -110 -193 -193 -30 -60 -32 -72 -32 -170 0 -93 3 -112 27
-162 31 -68 103 -147 163 -183 59 -34 167 -58 235 -52 125 11 249 93 312 203
l30 54 489 0 c457 0 490 -1 495 -17 40 -123 148 -252 260 -310 212 -112 450
-76 620 92 170 168 209 395 103 612 -100 208 -340 333 -561 293z m213 -298
c198 -103 183 -390 -25 -477 -45 -19 -146 -19 -191 -1 -103 44 -156 120 -163
237 -5 89 14 142 70 196 57 54 105 73 184 73 59 0 81 -5 125 -28z"/>
<path d="M4889 12060 c-111 -20 -241 -115 -283 -207 l-18 -42 -477 -4 c-529
-4 -530 -4 -664 -74 -172 -91 -275 -266 -307 -523 -6 -48 -10 -303 -10 -598 0
-479 -1 -513 -17 -518 -79 -25 -174 -84 -234 -143 -265 -265 -191 -701 147
-863 86 -41 93 -43 201 -47 95 -3 122 0 180 19 171 57 297 180 355 348 32 93
31 248 -1 342 -47 139 -145 246 -284 310 l-67 32 0 539 c0 453 3 552 16 616
28 137 76 208 172 255 l67 33 385 3 c212 2 417 1 455 -3 l71 -6 28 -54 c36
-68 110 -139 184 -173 52 -25 68 -27 177 -27 109 0 125 2 178 27 80 38 161
117 200 197 29 61 32 74 32 166 0 110 -14 154 -76 239 -85 119 -256 184 -410
156z m-1524 -2254 c204 -94 199 -387 -7 -476 -94 -41 -215 -19 -287 52 -56 54
-75 103 -76 188 0 86 18 132 73 188 75 75 198 95 297 48z"/>
<path d="M8892 12059 c-259 -51 -398 -343 -276 -576 31 -58 95 -126 149 -158
113 -66 279 -73 399 -17 79 37 149 100 187 168 l29 51 414 6 c280 5 432 3 472
-4 140 -26 211 -103 250 -269 14 -65 17 -151 21 -622 5 -525 4 -548 -14 -554
-71 -23 -155 -76 -214 -134 -145 -143 -195 -344 -134 -538 98 -310 446 -460
745 -319 85 39 195 148 239 234 111 221 62 484 -122 649 -48 43 -178 114 -210
114 -13 0 -16 63 -20 563 -4 518 -6 569 -25 652 -35 156 -86 258 -173 343 -61
60 -121 96 -214 129 l-80 28 -474 2 -474 3 -29 52 c-85 156 -261 234 -446 197z
m1903 -2248 c100 -45 155 -131 155 -241 0 -151 -110 -260 -262 -260 -75 0
-130 23 -181 74 -53 52 -70 92 -75 172 -7 113 41 199 140 248 65 32 161 35
223 7z"/>
<path d="M6352 10630 c-39 -11 -91 -32 -115 -49 -49 -33 -113 -101 -129 -136
l-11 -23 -596 -5 c-653 -4 -657 -5 -779 -66 -73 -37 -130 -93 -169 -168 -47
-88 -56 -134 -62 -316 l-6 -169 -53 -18 c-291 -103 -436 -423 -319 -705 90
-219 311 -350 549 -325 141 14 241 64 341 168 266 279 154 735 -214 871 -25 9
-26 13 -33 118 -7 123 4 209 33 257 46 74 65 76 706 76 l561 0 27 -60 c73
-158 254 -253 420 -220 153 30 273 134 317 277 91 294 -171 569 -468 493z
m-1597 -1229 c58 -33 75 -51 105 -108 84 -162 -26 -364 -207 -380 -110 -10
-204 39 -255 132 -60 111 -43 224 47 312 61 59 92 71 190 72 60 1 77 -3 120
-28z"/>
<path d="M7467 10640 c-85 -11 -175 -60 -240 -130 -76 -81 -101 -147 -101
-265 0 -81 3 -97 33 -162 41 -87 114 -161 198 -201 52 -24 70 -27 163 -27 99
0 110 2 171 32 80 40 160 121 195 198 l25 55 311 0 c184 0 338 -5 375 -11 73
-13 118 -44 139 -96 18 -43 29 -191 20 -275 l-7 -66 -47 -17 c-244 -93 -391
-370 -327 -620 37 -143 143 -285 262 -348 66 -35 191 -67 262 -67 245 0 474
193 522 438 24 125 -4 281 -69 387 -57 93 -157 175 -257 211 l-60 22 -6 153
c-9 223 -38 322 -124 417 -24 27 -70 63 -103 80 -107 57 -159 64 -558 69
l-362 5 -11 24 c-15 34 -90 113 -131 139 -74 47 -178 68 -273 55z m1548 -1224
c94 -44 148 -132 147 -240 0 -74 -18 -120 -68 -176 -58 -64 -105 -85 -194 -85
-85 0 -133 20 -186 77 -55 58 -69 95 -69 183 0 63 5 89 22 121 27 51 100 117
145 131 61 20 148 15 203 -11z"/>
<path d="M4120 5460 l0 -1520 160 0 160 0 2 1231 3 1232 975 -1231 975 -1231
138 -1 137 0 0 1520 0 1520 -160 0 -160 0 -2 -1232 -3 -1232 -979 1232 -979
1232 -133 0 -134 0 0 -1520z"/>
<path d="M7660 5460 l0 -1520 160 0 160 0 0 403 0 402 308 308 c169 169 310
307 314 307 4 0 284 -319 623 -710 l616 -710 191 0 c179 0 190 1 177 17 -8 10
-324 384 -702 831 l-689 815 84 86 c47 47 323 336 613 641 291 305 549 576
574 603 l45 47 -185 0 -184 0 -890 -916 -890 -915 -3 915 -2 916 -160 0 -160
0 0 -1520z"/>
</g>
</svg>
